<?xml version="1.0" encoding="utf-8"?>
<!-- Generator: Adobe Illustrator 19.2.0, SVG Export Plug-In . SVG Version: 6.00 Build 0)  -->
<svg version="1.1" id="Layer_1" xmlns="http://www.w3.org/2000/svg" xmlns:xlink="http://www.w3.org/1999/xlink" x="0px" y="0px"
	 viewBox="0 0 198.3 126.1" style="enable-background:new 0 0 198.3 126.1;" xml:space="preserve">
<style type="text/css">
	.st0{fill:#FFFFFF;}
</style>
<g id="XMLID_234_">
	<path id="XMLID_229_" class="st0" d="M0,63.1C-1.2,30.6,27.3,0.6,59.8,0.2c16.6-1.4,32.7,5,45.3,15.5c-5.1,5.7-10.4,11.3-16,16.5
		c-11-6.7-24.3-11.8-37.2-7.3C31,30.9,18.4,55.4,26.1,75.8c6.4,21.3,32.3,32.9,52.5,24C89.1,96.1,96,86.4,99.1,76
		c-12-0.2-24.1-0.1-36.1-0.4c0-7.2-0.1-14.3,0-21.5c20.1,0,40.2-0.1,60.3,0.1c1.2,17.5-1.4,36.3-12.8,50.4
		c-15.6,20.1-44.5,26-67.9,18.1C17.6,114.5-0.5,89.4,0,63.1z"/>
	<path id="XMLID_228_" class="st0" d="M162.3,36c6,0,11.9,0,17.9,0c0,6,0.1,12,0.1,18c6,0.1,12,0.1,18,0.1c0,6,0,11.9,0,17.9
		c-6,0-12,0.1-18,0.1c-0.1,6-0.1,12-0.1,18c-6,0-12,0-17.9,0c-0.1-6-0.1-12-0.1-18c-6-0.1-12-0.1-18-0.1c0-6,0-11.9,0-17.9
		c6,0,12-0.1,18-0.1C162.2,48,162.3,42,162.3,36z"/>
</g>
</svg>
