<?xml version="1.0" encoding="utf-8"?>
<!-- Generator: Adobe Illustrator 19.0.0, SVG Export Plug-In . SVG Version: 6.00 Build 0)  -->
<svg version="1.1" id="Layer_1" xmlns="http://www.w3.org/2000/svg" xmlns:xlink="http://www.w3.org/1999/xlink" x="0px" y="0px"
	 viewBox="-438.5 271.7 21 19" style="enable-background:new -438.5 271.7 21 19;" xml:space="preserve">
<style type="text/css">
	.st0{fill-rule:evenodd;clip-rule:evenodd;fill:#FFFFFF;}
</style>
<path class="st0" d="M-421.9,279.7h-1.5c0.1,0.4,0.2,0.9,0.2,1.3c0,2.9-2.4,5.3-5.3,5.3s-5.3-2.4-5.3-5.3c0-0.5,0.1-0.9,0.2-1.3
	h-1.5v7.3c0,0.4,0.3,0.7,0.7,0.7h12c0.4,0,0.7-0.3,0.7-0.7V279.7z M-421.9,275c0-0.4-0.3-0.7-0.7-0.7h-2c-0.4,0-0.7,0.3-0.7,0.7v2
	c0,0.4,0.3,0.7,0.7,0.7h2c0.4,0,0.7-0.3,0.7-0.7V275z M-428.6,277.7c-1.8,0-3.3,1.5-3.3,3.3c0,1.8,1.5,3.3,3.3,3.3
	c1.8,0,3.3-1.5,3.3-3.3C-425.2,279.2-426.7,277.7-428.6,277.7 M-421.9,289.6h-13.3c-1.1,0-2-0.9-2-2v-13.3c0-1.1,0.9-2,2-2h13.3
	c1.1,0,2,0.9,2,2v13.3C-419.9,288.7-420.8,289.6-421.9,289.6"/>
</svg>
