<?xml version="1.0" encoding="utf-8"?>
<!-- Generator: Adobe Illustrator 21.1.0, SVG Export Plug-In . SVG Version: 6.00 Build 0)  -->
<svg version="1.1" id="Layer_1" xmlns="http://www.w3.org/2000/svg" xmlns:xlink="http://www.w3.org/1999/xlink" x="0px" y="0px"
	 width="1792px" height="1792px" viewBox="0 0 1792 1792" style="enable-background:new 0 0 1792 1792;" xml:space="preserve">
<style type="text/css">
	.st0{fill:#FFFFFF;}
</style>
<path class="st0" d="M1664,896c0,139.3-34.3,267.8-103,385.5s-161.8,210.8-279.5,279.5s-246.2,103-385.5,103
	c-74,0-146.7-10.7-218-32c39.3-62,65.3-116.7,78-164c6-22.7,24-93,54-211c13.3,26,37.7,48.5,73,67.5s73.3,28.5,114,28.5
	c80.7,0,152.7-22.8,216-68.5s112.3-108.5,147-188.5s52-170,52-270c0-76-19.8-147.3-59.5-214s-97.2-121-172.5-163s-160.3-63-255-63
	c-70,0-135.3,9.7-196,29s-112.2,45-154.5,77s-78.7,68.8-109,110.5s-52.7,84.8-67,129.5S377,821.3,377,866c0,69.3,13.3,130.3,40,183
	c26.7,52.7,65.7,89.7,117,111c20,8,32.7,1.3,38-20c1.3-4.7,4-15,8-31s6.7-26,8-30c4-15.3,0.3-29.7-11-43c-34-40.7-51-91-51-151
	c0-100.7,34.8-187.2,104.5-259.5S791.3,517,904,517c100.7,0,179.2,27.3,235.5,82s84.5,125.7,84.5,213c0,113.3-22.8,209.7-68.5,289
	s-104.2,119-175.5,119c-40.7,0-73.3-14.5-98-43.5s-32.3-63.8-23-104.5c5.3-23.3,14.2-54.5,26.5-93.5s22.3-73.3,30-103
	S927,820.7,927,800c0-33.3-9-61-27-83s-43.7-33-77-33c-41.3,0-76.3,19-105,57s-43,85.3-43,142c0,48.7,8.3,89.3,25,122l-99,418
	c-11.3,46.7-15.7,105.7-13,177c-137.3-60.7-248.3-154.3-333-281s-127-267.7-127-423c0-139.3,34.3-267.8,103-385.5
	S392.8,299.7,510.5,231S756.7,128,896,128s267.8,34.3,385.5,103s210.8,161.8,279.5,279.5S1664,756.7,1664,896z"/>
</svg>
